<svg xmlns="http://www.w3.org/2000/svg" xmlns:xlink="http://www.w3.org/1999/xlink" width="30" height="30" viewBox="0 0 30 30"><defs><clipPath id="b"><rect width="30" height="30"/></clipPath></defs><g id="a" clip-path="url(#b)"><path d="M19.566,31.924Q18.5,31.631,18.5,31.1a2.245,2.245,0,0,1,.406-.939q.406-.657.63-.658c.224,0,.337.047.337.14a.326.326,0,0,1-.1.2.341.341,0,0,0-.1.224c0,.056.116.139.35.252a4.726,4.726,0,0,0,1.078.308,9.48,9.48,0,0,0,1.764.139,6.229,6.229,0,0,0,2.9-.643,5.111,5.111,0,0,0,1.918-1.625,3.38,3.38,0,0,0,.671-1.9A2.535,2.535,0,0,0,27.2,24.519a12.664,12.664,0,0,0-3.738-1.652q-2.492-.811-3.85-1.358a6.866,6.866,0,0,1-2.2-1.344,2.583,2.583,0,0,1-.84-1.946,4.146,4.146,0,0,1,1.735-3.038,13.76,13.76,0,0,1,4.284-2.436,13.783,13.783,0,0,1,4.732-.938q1.12,0,1.2.448a5.516,5.516,0,0,1,.084,1.008q0,.42-.308.42a.705.705,0,0,1-.322-.1,3.108,3.108,0,0,0-.321-.154c-.112-.038-.243-.075-.392-.113a2.845,2.845,0,0,0-.644-.056,10.394,10.394,0,0,0-3.5.756,13.979,13.979,0,0,0-3.542,1.876q-1.5,1.121-1.5,2.156a1.9,1.9,0,0,0,.686,1.456A5.77,5.77,0,0,0,20.6,20.556q1.147.435,3.247,1.078A14.3,14.3,0,0,1,28.4,23.65a3.346,3.346,0,0,1,1.47,2.744,4.806,4.806,0,0,1-.938,2.758A6.877,6.877,0,0,1,26.3,31.364a8.432,8.432,0,0,1-3.85.854A11.252,11.252,0,0,1,19.566,31.924ZM4.85,22.517a13.63,13.63,0,0,1-3.523-1.809q-1.472-1.08-1.472-2a1.083,1.083,0,0,1,.405-.783,4.213,4.213,0,0,1,.918-.648,1.919,1.919,0,0,1,.729-.27.485.485,0,0,1,.459.189.718.718,0,0,1,.135.324q0,.135-.189.243a3.39,3.39,0,0,0-.594.351.5.5,0,0,0-.162.405q0,.648,1.094,1.458a10.578,10.578,0,0,0,2.687,1.39,8.709,8.709,0,0,0,2.97.58,5.632,5.632,0,0,0,1.917-.27,2.054,2.054,0,0,0,1.134-1.148,6.564,6.564,0,0,0,.4-2.632,80.8,80.8,0,0,0-.918-9.639q-.081-.621-.148-1.12T10.6,6.29q-1.836,0-2.943-.027A33.061,33.061,0,0,1,4.2,6.02a1.113,1.113,0,0,1-.662-.311.862.862,0,0,1-.257-.635.467.467,0,0,1,.162-.324.518.518,0,0,1,.378-.162,10.98,10.98,0,0,1,1.242.081q1.944.189,4.212.189h1.08a4.735,4.735,0,0,1-.081-1,.7.7,0,0,1,.311-.459.95.95,0,0,1,.58-.216q.324,0,.513.486a10.771,10.771,0,0,1,.27,1.188,16.753,16.753,0,0,0,2.012-.095q.742-.095.851-.122a9.021,9.021,0,0,1,1-.108,1.066,1.066,0,0,1,.446.081.26.26,0,0,1,.175.243.98.98,0,0,1-.324.7,1.412,1.412,0,0,1-.729.405,16.493,16.493,0,0,1-3.321.351l.108.837q.405,2.97.689,5.643a48.686,48.686,0,0,1,.283,5.13q0,2.916-1.107,4.118a4.643,4.643,0,0,1-3.564,1.2A11.01,11.01,0,0,1,4.85,22.517Z" transform="translate(0.18 -2.85)" fill="#8bb9ff" stroke="rgba(0,0,0,0)" stroke-miterlimit="10" stroke-width="1"/></g></svg>